<?xml version="1.0" encoding="iso-8859-1"?>
<!-- Generator: Adobe Illustrator 19.0.0, SVG Export Plug-In . SVG Version: 6.00 Build 0)  -->
<svg version="1.1" id="Capa_1" xmlns="http://www.w3.org/2000/svg" xmlns:xlink="http://www.w3.org/1999/xlink" x="0px" y="0px"
	 viewBox="0 0 512 512" style="enable-background:new 0 0 512 512;" xml:space="preserve">
<g>
	<g>
		<path d="M424.921,365.496l-87.121-150.897c-17.654-30.579-49.274-48.835-84.584-48.835s-66.93,18.256-84.584,48.835L81.51,365.496
			c-17.654,30.579-17.654,67.09,0,97.669C99.166,493.744,130.786,512,166.096,512h174.24c35.31,0,66.93-18.256,84.585-48.835
			C442.575,432.586,442.575,396.074,424.921,365.496z M398.94,448.165C386.708,469.352,364.799,482,340.336,482h-174.24
			c-24.464,0-46.372-12.648-58.604-33.835c-12.231-21.187-12.231-46.483,0-67.669l87.121-150.897
			c12.232-21.187,34.14-33.835,58.604-33.835c24.464,0,46.371,12.648,58.604,33.835l87.121,150.897
			C411.172,401.682,411.172,426.978,398.94,448.165z"/>
	</g>
</g>
<g>
	<g>
		<path d="M74.833,102.791c-34.842,0-63.188,28.346-63.188,63.188c0,34.842,28.347,63.188,63.188,63.188
			s63.189-28.346,63.189-63.188S109.676,102.791,74.833,102.791z M74.833,199.167c-18.299,0-33.188-14.888-33.188-33.188
			s14.889-33.188,33.188-33.188s33.188,14.888,33.188,33.188S93.133,199.167,74.833,199.167z"/>
	</g>
</g>
<g>
	<g>
		<path d="M437.166,102.791c-34.842,0-63.188,28.346-63.188,63.188c0,34.842,28.346,63.188,63.188,63.188
			s63.189-28.346,63.189-63.188C500.354,131.137,472.008,102.791,437.166,102.791z M437.166,199.167
			c-18.3,0-33.188-14.888-33.188-33.188s14.888-33.188,33.188-33.188s33.189,14.888,33.189,33.188
			C470.354,184.279,455.466,199.167,437.166,199.167z"/>
	</g>
</g>
<g>
	<g>
		<path d="M179.723,0c-34.841,0-63.188,28.346-63.188,63.188c-0.001,34.842,28.346,63.189,63.188,63.189
			c34.842,0,63.188-28.346,63.188-63.188C242.911,28.346,214.564,0,179.723,0z M179.723,96.376
			c-18.299,0-33.189-14.888-33.189-33.188S161.423,30,179.723,30s33.188,14.888,33.188,33.188S198.022,96.376,179.723,96.376z"/>
	</g>
</g>
<g>
	<g>
		<path d="M331.866,0c-34.842,0-63.189,28.346-63.189,63.188c0.001,34.842,28.347,63.189,63.189,63.189
			c34.842,0,63.188-28.346,63.188-63.188C395.055,28.346,366.708,0,331.866,0z M331.866,96.376c-18.3,0-33.189-14.888-33.189-33.188
			C298.678,44.888,313.566,30,331.866,30s33.188,14.888,33.188,33.188S350.164,96.376,331.866,96.376z"/>
	</g>
</g>
<g>
</g>
<g>
</g>
<g>
</g>
<g>
</g>
<g>
</g>
<g>
</g>
<g>
</g>
<g>
</g>
<g>
</g>
<g>
</g>
<g>
</g>
<g>
</g>
<g>
</g>
<g>
</g>
<g>
</g>
</svg>
